<mxfile host="app.diagrams.net" modified="2024-04-01T07:09:49.545Z" agent="Mozilla/5.0 (Windows NT 10.0; Win64; x64) AppleWebKit/537.36 (KHTML, like Gecko) Chrome/123.0.0.0 Safari/537.36" version="23.1.5" etag="-sLPeg4h_NR6rj12czZu" type="github">
  <diagram name="Page-1" id="9KJO48fIUPDz2tg5-Mfo">
    <mxGraphModel>
      <root>
        <mxCell id="0" />
        <mxCell id="1" parent="0" />
      </root>
    </mxGraphModel>
  </diagram>
</mxfile>
